<svg width="79" height="40" viewBox="0 0 79 40" fill="none" xmlns="http://www.w3.org/2000/svg">
<rect width="79" height="40" rx="6" fill="#FF5A83"/>
<path d="M10.2207 11.2266H16.2998C17.488 11.2266 18.5174 11.43 19.3882 11.8369C20.259 12.2438 20.9263 12.846 21.3901 13.6436C21.8621 14.4411 22.0981 15.4258 22.0981 16.5977C22.0981 17.6149 21.9679 18.4653 21.7075 19.1489C21.4552 19.8325 21.0972 20.3981 20.6333 20.8457C20.1694 21.2852 19.6242 21.6473 18.9976 21.9321L17.6426 22.7256H12.8696L12.8452 19.4175H16.2021C16.5846 19.4175 16.902 19.3198 17.1543 19.1245C17.4066 18.9292 17.5938 18.6525 17.7158 18.2944C17.846 17.9282 17.9111 17.4928 17.9111 16.9883C17.9111 16.4756 17.8501 16.0361 17.728 15.6699C17.606 15.3037 17.4269 15.0229 17.1909 14.8276C16.9631 14.6323 16.666 14.5347 16.2998 14.5347H14.3955V29H10.2207V11.2266ZM18.0942 29L14.9448 21.1387L19.3638 21.1143L22.5742 28.8169V29H18.0942ZM26.7305 11.2266H30.1118L32.9072 23.5923L35.7026 11.2266H39.0718L34.2866 29H31.5278L26.7305 11.2266ZM24.6431 11.2266H28.1465L28.8179 24.8496V29H24.6431V11.2266ZM37.6558 11.2266H41.1714V29H36.9844V24.8496L37.6558 11.2266ZM48.8555 29H45.5962L45.6206 25.7041H48.8555C49.4658 25.7041 49.9622 25.5698 50.3447 25.3013C50.7354 25.0327 51.0243 24.5892 51.2114 23.9707C51.3986 23.3441 51.4922 22.5099 51.4922 21.4683V18.7461C51.4922 17.9648 51.4393 17.3057 51.3335 16.7686C51.2358 16.2314 51.0812 15.8001 50.8696 15.4746C50.658 15.1491 50.3773 14.9131 50.0273 14.7666C49.6774 14.612 49.2624 14.5347 48.7822 14.5347H45.5352V11.2266H48.7822C49.8239 11.2266 50.7679 11.3975 51.6143 11.7393C52.4688 12.0729 53.2052 12.5693 53.8237 13.2285C54.4422 13.8796 54.9183 14.6689 55.252 15.5967C55.5856 16.5244 55.7524 17.5824 55.7524 18.7705V21.4683C55.7524 22.6483 55.5856 23.7062 55.252 24.6421C54.9183 25.5698 54.4422 26.3592 53.8237 27.0103C53.2134 27.6613 52.485 28.1577 51.6387 28.4995C50.8005 28.8332 49.8727 29 48.8555 29ZM48.0376 11.2266V29H43.8628V11.2266H48.0376ZM58.0532 10.25H62.0571V25.7529L61.6421 29H58.0532V10.25ZM68.6489 21.7612V22.9941C68.6489 24.0765 68.5635 25.0083 68.3926 25.7896C68.2298 26.5708 67.9694 27.2178 67.6113 27.7305C67.2533 28.2432 66.8016 28.6257 66.2563 28.8779C65.7111 29.1221 65.0641 29.2441 64.3154 29.2441C63.6725 29.2441 63.1313 29.0773 62.6919 28.7437C62.2606 28.41 61.9025 27.9502 61.6177 27.3643C61.3328 26.7702 61.105 26.0866 60.9341 25.3135C60.7632 24.5322 60.6208 23.6981 60.5068 22.811V21.981C60.6208 21.1021 60.7591 20.272 60.9219 19.4907C61.0928 18.7095 61.3206 18.0259 61.6055 17.4399C61.8903 16.8459 62.2484 16.382 62.6797 16.0483C63.1191 15.7147 63.6603 15.5479 64.3032 15.5479C65.0601 15.5479 65.7111 15.6781 66.2563 15.9385C66.8016 16.1908 67.2533 16.5773 67.6113 17.0981C67.9694 17.6108 68.2298 18.2537 68.3926 19.0269C68.5635 19.8 68.6489 20.7114 68.6489 21.7612ZM64.645 22.9941V21.7612C64.645 21.2078 64.6287 20.7399 64.5962 20.3574C64.5718 19.9668 64.5148 19.6535 64.4253 19.4175C64.3358 19.1733 64.1974 18.9984 64.0103 18.8926C63.8312 18.7786 63.5871 18.7217 63.2778 18.7217C62.9686 18.7217 62.7082 18.7868 62.4966 18.917C62.2931 19.0472 62.1304 19.2384 62.0083 19.4907C61.8944 19.7349 61.813 20.04 61.7642 20.4062C61.7235 20.7643 61.7153 21.1753 61.7397 21.6392V23.1284C61.6991 23.7632 61.7153 24.3003 61.7886 24.7397C61.8618 25.1792 62.0164 25.5129 62.2524 25.7407C62.4966 25.9686 62.8424 26.0825 63.29 26.0825C63.6156 26.0825 63.8678 26.0378 64.0469 25.9482C64.234 25.8506 64.3683 25.6878 64.4497 25.46C64.5392 25.224 64.5921 24.9066 64.6084 24.5078C64.6328 24.1009 64.645 23.5964 64.645 22.9941Z" fill="#151515"/>
</svg>
